<svg xmlns="http://www.w3.org/2000/svg" viewBox="0 0 24 24" enable-background="new 0 0 24 24">
    <path style="text-indent:0;text-align:start;line-height:normal;text-transform:none;block-progression:tb;-inkscape-font-specification:Bitstream Vera Sans" d="M 12 2 C 9.8 2 8 3.8 8 6 L 8 6.3125 C 9.6 6.5125 11 6.9 12 7.5 C 13 6.9 14.4 6.5125 16 6.3125 L 16 6 C 16 3.8 14.2 2 12 2 z M 3 7 L 3 8 L 3 12 C 2.4 12 2 12.4 2 13 L 2 15 C 2 15.6 2.4 16 3 16 L 4 16 C 5.1 16 6 15.1 6 14 C 6 13.263455 5.5968777 12.628312 5 12.28125 L 5 9.0625 C 7.6570857 9.161738 9.3871911 9.5366683 10.21875 9.90625 C 10.660224 10.102461 10.875051 10.29643 11 10.40625 L 11 15 L 11 19.21875 C 10.869506 19.149136 10.734553 19.093369 10.59375 19.03125 C 9.3077148 18.463882 7.4043178 18.14498 5 18.0625 L 5 17 L 3 17 L 3 19 L 3 20 L 4 20 C 6.8137931 20 8.7094178 20.370883 9.78125 20.84375 C 10.853082 21.316617 11 21.738889 11 22 L 13 22 C 13 21.738889 13.146918 21.316617 14.21875 20.84375 C 15.290582 20.370883 17.186207 20 20 20 L 21 20 L 21 19 L 21 17 L 19 17 L 19 18.0625 C 16.595682 18.14498 14.692285 18.463882 13.40625 19.03125 C 13.265447 19.093369 13.130494 19.149136 13 19.21875 L 13 15 L 13 10.40625 C 13.124949 10.29643 13.339776 10.102461 13.78125 9.90625 C 14.612809 9.5366683 16.342914 9.1617377 19 9.0625 L 19 12.28125 C 18.403122 12.628312 18 13.263455 18 14 C 18 15.1 18.9 16 20 16 L 21 16 C 21.6 16 22 15.6 22 15 L 22 13 C 22 12.4 21.6 12 21 12 L 21 8 L 21 7 L 20 7 C 16.404762 7 14.269604 7.5155928 12.96875 8.09375 C 12.549864 8.2799213 12.25885 8.4764312 12 8.65625 C 11.74115 8.4764312 11.450136 8.2799213 11.03125 8.09375 C 9.7303962 7.5155928 7.5952381 7 4 7 L 3 7 z" overflow="visible" enable-background="accumulate" font-family="Bitstream Vera Sans" fill="#333333" />
</svg>