<?xml version="1.0" encoding="utf-8"?>
<!-- Generator: Adobe Illustrator 26.3.1, SVG Export Plug-In . SVG Version: 6.00 Build 0)  -->
<svg version="1.1" id="Layer_1" xmlns="http://www.w3.org/2000/svg" xmlns:xlink="http://www.w3.org/1999/xlink" x="0px" y="0px"
	 viewBox="0 0 512 512" style="enable-background:new 0 0 512 512;" xml:space="preserve">
<style type="text/css">
	.st0{fill:#222F3E;}
</style>
<g>
	<path class="st0" d="M466.5,245.73C466.49,126.64,369.96,30.11,250.87,30.1c-80.18,0-150.18,43.79-187.31,108.73
		c-2.82,4.92-1.11,11.2,3.82,14.01c4.92,2.82,11.2,1.11,14.01-3.82c33.64-58.79,96.91-98.39,169.48-98.39
		c53.91,0.01,102.62,21.82,137.95,57.14c35.32,35.34,57.14,84.05,57.14,137.95c0,5.67,4.6,10.27,10.27,10.27
		C461.9,256,466.5,251.4,466.5,245.73L466.5,245.73z"/>
	<path class="st0" d="M395.19,223.44l60.19,40.6c2.24,1.51,5.05,2.08,7.7,1.57c2.65-0.52,5.04-2.1,6.55-4.34l40.6-60.19
		c3.17-4.7,1.93-11.08-2.77-14.25c-4.7-3.17-11.08-1.93-14.25,2.77l-34.86,51.68l-51.68-34.86c-4.7-3.17-11.08-1.93-14.25,2.77
		C389.25,213.89,390.49,220.27,395.19,223.44L395.19,223.44z"/>
	<path class="st0" d="M45.5,266.27c0.01,119.09,96.54,215.63,215.63,215.63c80.18,0,150.18-43.79,187.31-108.73
		c2.82-4.92,1.11-11.2-3.82-14.01c-4.92-2.82-11.2-1.11-14.01,3.82c-33.64,58.79-96.91,98.39-169.48,98.39
		c-53.91-0.01-102.62-21.82-137.95-57.14c-35.32-35.34-57.14-84.05-57.14-137.95c0-5.67-4.6-10.27-10.27-10.27
		C50.1,256,45.5,260.6,45.5,266.27L45.5,266.27z"/>
	<path class="st0" d="M116.81,288.56l-60.19-40.6c-4.7-3.17-11.08-1.93-14.25,2.77l-40.6,60.19c-3.17,4.7-1.93,11.08,2.77,14.25
		c4.7,3.17,11.08,1.93,14.25-2.77l34.86-51.68l51.68,34.86c4.7,3.17,11.08,1.93,14.25-2.77
		C122.75,298.11,121.51,291.73,116.81,288.56L116.81,288.56z"/>
</g>
</svg>
